# Blender 4.3.2
# www.blender.org
mtllib cube.mtl
o Cube
v 1.347710 0.969882 -0.492957
v 0.874011 -0.819261 -1.250966
v 1.045424 0.267027 1.354912
v 0.571725 -1.522116 0.596902
v -0.571725 1.522116 -0.596902
v -1.045424 -0.267027 -1.354912
v -0.874011 0.819261 1.250966
v -1.347710 -0.969882 0.492957
vn 0.2368 0.8946 0.3790
vn -0.1511 -0.3514 0.9239
vn -0.9597 0.2761 -0.0520
vn -0.2368 -0.8946 -0.3790
vn 0.9597 -0.2761 0.0520
vn 0.1511 0.3514 -0.9239
vt 0.625000 0.500000
vt 0.875000 0.500000
vt 0.875000 0.750000
vt 0.625000 0.750000
vt 0.375000 0.750000
vt 0.625000 1.000000
vt 0.375000 1.000000
vt 0.375000 0.000000
vt 0.625000 0.000000
vt 0.625000 0.250000
vt 0.375000 0.250000
vt 0.125000 0.500000
vt 0.375000 0.500000
vt 0.125000 0.750000
s 0
usemtl Material
f 1/1/1 5/2/1 7/3/1 3/4/1
f 4/5/2 3/4/2 7/6/2 8/7/2
f 8/8/3 7/9/3 5/10/3 6/11/3
f 6/12/4 2/13/4 4/5/4 8/14/4
f 2/13/5 1/1/5 3/4/5 4/5/5
f 6/11/6 5/10/6 1/1/6 2/13/6
